<!-- <svg xmlns="http://www.w3.org/2000/svg" width="256" height="256" fill="none" viewBox="0 0 64 64"> -->


<svg xmlns="http://www.w3.org/2000/svg" xmlns:xlink="http://www.w3.org/1999/xlink" width="64" height="64">
<rect width="64" height="64" fill="#ffffff" rx="14.5"/>

    <g transform="matrix(0.3,0,0,0.3,3.4,-24)">
    
    <path transform="matrix(0.9,0,0,0.8,10,41.5)" d="M 176.1 175.1 c 0 43.8 -35.5 79.3 -79.3 79.3 S 18.1 218.9 18.1 175.1 s 35.5 -79.3 79.3 -79.3 c 43.8 0 79.3 35.5 79.3 79.3" fill="#008dc2"/>
    <g transform="matrix(0.9,0,0,0.8,9.6,39.6)" fill="#ffffff">
        <use transform="matrix(1,0,0,1,17.3,20)" xlink:href="#B"/>
        <use transform="matrix(1,0,0,1,17.3,20)" xlink:href="#B" x="1.1" y="17.4"/>
        <path d="M 58.7 187.2 c 0 3.5 -2.8 6.3 -6.3 6.3 s -6.3 -2.8 -6.3 -6.3 s 2.8 -6.3 6.3 -6.3 c 3.5 0 6.3 2.8 6.3 6.3 m 8.7 16.5 c 0 3.5 -2.8 6.3 -6.3 6.3 s -6.3 -2.8 -6.3 -6.3 s 2.8 -6.3 6.3 -6.3 c 3.5 0 6.3 2.8 6.3 6.3"/>
        <use transform="matrix(1,0,0,1,17.3,20)" xlink:href="#C"/>
        <path d="M 146.7 213.2 c 0 3.5 -2.8 6.3 -6.3 6.3 s -6.3 -2.8 -6.3 -6.3 s 2.8 -6.3 6.3 -6.3 s 6.3 2.8 6.3 6.3"/>
        <use transform="matrix(1,0,0,1,17.3,20)" xlink:href="#C" x="-21.9" y="-110"/>
        <path d="M 96.7 110.9 c 0 3.5 -2.8 6.3 -6.3 6.3 S 84 114.4 84 110.9 s 2.8 -6.3 6.3 -6.3 s 6.3 2.8 6.3 6.3"/>
    </g>
    <g transform="matrix(0.9,0,0,0.8,11.1,43.2)" fill="#68b346" stroke="#ffffff" stroke-width="3.5">
        <circle cx="139.8" cy="153.9" r="42.2"/>
        <circle cx="82" cy="240" r="34.6"/>
        <circle cx="53.5" cy="111.4" r="23"/>
    </g>
    </g>
    <defs >
        <path id="B" d="M 36.4 131.3 c 0 3.5 -2.8 6.3 -6.3 6.3 s -6.3 -2.8 -6.3 -6.3 s 2.8 -6.3 6.3 -6.3 a 6.3 6.3 0 0 1 6.3 6.3"/>
    <path id="C" d="M 117.9 206.8 c 0 3.5 -2.8 6.3 -6.3 6.3 s -6.3 -2.8 -6.3 -6.3 s 2.8 -6.3 6.3 -6.3 s 6.3 2.8 6.3 6.3"/>
    </defs>
</svg>


    
